<svg id="Capa_1" data-name="Capa 1" xmlns="http://www.w3.org/2000/svg" viewBox="0 0 512 384.94"><path d="M38.87,149.21H118a7.5,7.5,0,0,0,0-15H38.87a7.5,7.5,0,1,0,0,15Z" transform="translate(0 -63.53)"/><path d="M115.26,185.32H84a7.5,7.5,0,1,0,0,15h31.25a7.5,7.5,0,0,0,0-15Z" transform="translate(0 -63.53)"/><path d="M7.5,237.33H84a7.5,7.5,0,1,0,0-15H7.5a7.5,7.5,0,0,0,0,15Z" transform="translate(0 -63.53)"/><path d="M125.47,370.29a7.5,7.5,0,0,0-7.5-7.5H38.87a7.5,7.5,0,0,0,0,15H118A7.5,7.5,0,0,0,125.47,370.29Z" transform="translate(0 -63.53)"/><path d="M115.26,311.68H84a7.5,7.5,0,1,0,0,15h31.25a7.5,7.5,0,0,0,0-15Z" transform="translate(0 -63.53)"/><path d="M91.51,282.17a7.5,7.5,0,0,0-7.5-7.5H7.5a7.5,7.5,0,0,0,0,15H84A7.5,7.5,0,0,0,91.51,282.17Z" transform="translate(0 -63.53)"/><path d="M319.53,165.83a7.5,7.5,0,0,0,7.5-7.5V146.88a7.5,7.5,0,0,0-15,0v11.45A7.5,7.5,0,0,0,319.53,165.83Z" transform="translate(0 -63.53)"/><path d="M402,173.54a7.5,7.5,0,0,0-10.61,0l-8.09,8.09a7.5,7.5,0,0,0,10.6,10.61l8.1-8.1A7.49,7.49,0,0,0,402,173.54Z" transform="translate(0 -63.53)"/><path d="M417.2,248.5a7.5,7.5,0,0,0,0,15h11.45a7.5,7.5,0,0,0,0-15Z" transform="translate(0 -63.53)"/><path d="M393.89,319.76a7.5,7.5,0,0,0-10.6,10.61l8.09,8.09A7.5,7.5,0,0,0,402,327.85Z" transform="translate(0 -63.53)"/><path d="M312,353.67v11.45a7.5,7.5,0,0,0,15,0V353.67a7.5,7.5,0,0,0-15,0Z" transform="translate(0 -63.53)"/><path d="M245.16,319.76l-8.09,8.09a7.5,7.5,0,0,0,10.6,10.61l8.1-8.09a7.5,7.5,0,0,0-10.61-10.61Z" transform="translate(0 -63.53)"/><path d="M210.41,248.5a7.5,7.5,0,1,0,0,15h11.45a7.5,7.5,0,0,0,0-15Z" transform="translate(0 -63.53)"/><path d="M255.77,181.63l-8.1-8.09a7.5,7.5,0,0,0-10.6,10.6l8.09,8.1a7.5,7.5,0,0,0,10.61-10.61Z" transform="translate(0 -63.53)"/><path d="M461.74,254.76a7.49,7.49,0,0,0,7-7.94c-4.77-78.7-70.32-140.35-149.24-140.35C237.08,106.47,170,173.55,170,256s67.08,149.53,149.53,149.53c73.87,0,136.9-54.12,147.86-127.15a7.5,7.5,0,1,0-14.83-2.23,134.6,134.6,0,0,1-133,114.38C245.35,390.53,185,330.18,185,256s60.35-134.53,134.53-134.53c71,0,130,55.46,134.27,126.26a7.5,7.5,0,0,0,7.94,7Z" transform="translate(0 -63.53)"/><path d="M319.53,63.53a192.32,192.32,0,0,0-76,15.71H111.18a7.5,7.5,0,0,0,0,15H215.29a192.41,192.41,0,0,0-38.46,32.6A7.5,7.5,0,0,0,188,136.91,177.86,177.86,0,0,1,319.53,78.53C417.39,78.53,497,158.14,497,256S417.39,433.47,319.53,433.47,142.06,353.86,142.06,256a176.89,176.89,0,0,1,28.3-96.19,7.5,7.5,0,1,0-12.59-8.14,192.42,192.42,0,0,0,57.57,266.09H111.18a7.5,7.5,0,0,0,0,15H243.41a191.33,191.33,0,0,0,76.12,15.71C425.66,448.47,512,362.13,512,256S425.66,63.53,319.53,63.53Z" transform="translate(0 -63.53)"/></svg>