<svg id="Layer_1" data-name="Layer 1" xmlns="http://www.w3.org/2000/svg" xmlns:xlink="http://www.w3.org/1999/xlink" viewBox="0 0 409 125"><defs><style>.cls-1{stroke-miterlimit:10;fill:url(#Orange_Yellow);stroke:url(#linear-gradient);}.cls-2{opacity:0.8;}.cls-3{fill:#fff;}</style><linearGradient id="Orange_Yellow" y1="62.5" x2="409" y2="62.5" gradientUnits="userSpaceOnUse"><stop offset="0" stop-color="#fff33b"/><stop offset="0.04" stop-color="#fee72e"/><stop offset="0.12" stop-color="#fed51b"/><stop offset="0.2" stop-color="#fdca10"/><stop offset="0.28" stop-color="#fdc70c"/><stop offset="0.67" stop-color="#f3903f"/><stop offset="0.89" stop-color="#ed683c"/><stop offset="1" stop-color="#e93e3a"/></linearGradient><linearGradient id="linear-gradient" x1="-0.5" y1="62.5" x2="409.5" y2="62.5" gradientUnits="userSpaceOnUse"><stop offset="0" stop-color="#fff33b"/><stop offset="0.02" stop-color="#fee72e"/><stop offset="0.05" stop-color="#fed51b"/><stop offset="0.09" stop-color="#fdca10"/><stop offset="0.12" stop-color="#fdc70c"/><stop offset="0.41" stop-color="#f3903f"/><stop offset="0.64" stop-color="#ed683c"/><stop offset="0.78" stop-color="#eb683e"/><stop offset="0.83" stop-color="#e46943"/><stop offset="0.86" stop-color="#d96b4d"/><stop offset="0.89" stop-color="#c86e5b"/><stop offset="0.92" stop-color="#b2716d"/><stop offset="0.94" stop-color="#967583"/><stop offset="0.96" stop-color="#767a9e"/><stop offset="0.97" stop-color="#527fbc"/><stop offset="0.98" stop-color="#4a80c2"/></linearGradient></defs><rect class="cls-1" width="409" height="125" rx="58"/><g class="cls-2"><path class="cls-3" d="M154,417.94h-5.89l-6.42-10.73a15,15,0,0,0-3.52-4.38,6.34,6.34,0,0,0-3.82-1.16h-3.59v16.27h-5V379.28h11.78q5.64,0,8.83,2.72a9.47,9.47,0,0,1,3.2,7.62q0,8-8.59,10.43v.12a7.78,7.78,0,0,1,2.76,1.93,28.84,28.84,0,0,1,3,4.26Zm-23.24-34.29V397.3h5.89a7.79,7.79,0,0,0,5.55-2,6.83,6.83,0,0,0,2.14-5.25,5.91,5.91,0,0,0-2-4.71,8.4,8.4,0,0,0-5.67-1.7Z" transform="translate(-108 -338)"/><path class="cls-3" d="M155.1,404.44q0-6.84,3.82-10.79t10.36-4q6.21,0,9.74,3.81T182.56,404a14.83,14.83,0,0,1-3.77,10.56,13.25,13.25,0,0,1-10.11,4,13,13,0,0,1-9.89-3.89A14.32,14.32,0,0,1,155.1,404.44Zm5-.15a11,11,0,0,0,2.41,7.51,8.17,8.17,0,0,0,6.48,2.75,7.79,7.79,0,0,0,6.39-2.68q2.19-2.69,2.19-7.7t-2.19-7.74a7.77,7.77,0,0,0-6.39-2.7,8,8,0,0,0-6.5,2.82A11.63,11.63,0,0,0,160.09,404.29Z" transform="translate(-108 -338)"/><path class="cls-3" d="M189.42,417.94V377.09h4.89v40.85Z" transform="translate(-108 -338)"/><path class="cls-3" d="M203,417.94V377.09h4.9v40.85Z" transform="translate(-108 -338)"/><path class="cls-3" d="M245.93,381.25a6.33,6.33,0,0,0-3-.72q-4.59,0-4.59,5.69v4.12h6.46v4h-6.46v23.56h-4.85V394.38h-4.71v-4h4.71V386a9.4,9.4,0,0,1,2.56-7,8.87,8.87,0,0,1,6.5-2.53,9.82,9.82,0,0,1,3.35.47Z" transform="translate(-108 -338)"/><path class="cls-3" d="M247.65,404.44q0-6.84,3.82-10.79t10.36-4q6.21,0,9.74,3.81T275.11,404a14.83,14.83,0,0,1-3.77,10.56,13.23,13.23,0,0,1-10.11,4,13,13,0,0,1-9.89-3.89A14.32,14.32,0,0,1,247.65,404.44Zm5-.15a11,11,0,0,0,2.41,7.51,8.17,8.17,0,0,0,6.48,2.75,7.79,7.79,0,0,0,6.39-2.68q2.19-2.69,2.19-7.7t-2.19-7.74a7.77,7.77,0,0,0-6.39-2.7,8.06,8.06,0,0,0-6.5,2.82A11.63,11.63,0,0,0,252.64,404.29Z" transform="translate(-108 -338)"/><path class="cls-3" d="M296.8,395.18a5.74,5.74,0,0,0-3.37-.87,5.53,5.53,0,0,0-4.7,2.66,12,12,0,0,0-1.84,7v14H282v-27.6h4.89V396h.1q2.1-6.09,7.24-6.09a7,7,0,0,1,2.57.37Z" transform="translate(-108 -338)"/><path class="cls-3" d="M317.29,392.26a17.59,17.59,0,0,1,9.51-2.57q10,0,10,10.48v17.77h-4.84v-4.26h-.13a9.21,9.21,0,0,1-8.46,4.91,9.08,9.08,0,0,1-6.39-2.17,7.56,7.56,0,0,1-2.37-5.86q0-7.74,9.16-9l8.19-1.15q0-6.76-5.59-6.77a14,14,0,0,0-9.06,3.35ZM325.48,405q-3.41.45-4.69,1.69a4.69,4.69,0,0,0-1.28,3.5,4.13,4.13,0,0,0,1.4,3.22,5.34,5.34,0,0,0,3.69,1.25,6.85,6.85,0,0,0,5.27-2.25,8,8,0,0,0,2.07-5.64v-2.65Z" transform="translate(-108 -338)"/><path class="cls-3" d="M374.82,395.18a5.74,5.74,0,0,0-3.37-.87,5.5,5.5,0,0,0-4.69,2.66,12,12,0,0,0-1.85,7v14H360v-27.6h4.89V396h.1q2.1-6.09,7.24-6.09a7,7,0,0,1,2.57.37Z" transform="translate(-108 -338)"/><path class="cls-3" d="M401.3,405.39H382a10,10,0,0,0,2.42,6.83,8.47,8.47,0,0,0,6.42,2.41,13.62,13.62,0,0,0,8.51-3V416q-3.65,2.58-9.66,2.57t-9.35-3.79Q377,411,377,404.27a15.07,15.07,0,0,1,3.68-10.46,11.75,11.75,0,0,1,9.15-4.12,10.65,10.65,0,0,1,8.46,3.48q3,3.48,3,9.75Zm-4.89-3.92a8.82,8.82,0,0,0-1.77-5.79,6.15,6.15,0,0,0-4.92-2.05,6.83,6.83,0,0,0-5.05,2.18,10,10,0,0,0-2.69,5.66Z" transform="translate(-108 -338)"/><path class="cls-3" d="M426.89,416.7a14.67,14.67,0,0,1-7.64,1.89,12.67,12.67,0,0,1-9.64-3.84,13.87,13.87,0,0,1-3.64-10q0-6.78,3.93-10.94a13.8,13.8,0,0,1,10.52-4.16,14.37,14.37,0,0,1,6.49,1.35v4.84a10.72,10.72,0,0,0-6.49-2.15,8.77,8.77,0,0,0-6.82,2.91,11.09,11.09,0,0,0-2.64,7.75,10.56,10.56,0,0,0,2.49,7.46,8.64,8.64,0,0,0,6.7,2.7,11.12,11.12,0,0,0,6.74-2.35Z" transform="translate(-108 -338)"/><path class="cls-3" d="M432.85,380.6a3,3,0,0,1,3.07-3.06,3.13,3.13,0,0,1,2.24.87,2.93,2.93,0,0,1,.91,2.19,2.86,2.86,0,0,1-.91,2.16,3.13,3.13,0,0,1-2.24.87,3,3,0,0,1-2.2-.87A2.9,2.9,0,0,1,432.85,380.6Zm.57,37.34v-27.6h4.9v27.6Z" transform="translate(-108 -338)"/><path class="cls-3" d="M452,414.05v16.6h-4.9V390.34H452v4.77h.1a10.41,10.41,0,0,1,9.48-5.42,10.11,10.11,0,0,1,8.3,3.71q3,3.71,3,9.94,0,6.9-3.41,11.07a11.21,11.21,0,0,1-9.17,4.18,9.18,9.18,0,0,1-8.21-4.54Zm0-7.49a8,8,0,0,0,2.17,5.68,7.63,7.63,0,0,0,11.53-.68q2.2-3,2.2-8.29a10.81,10.81,0,0,0-2.05-7,6.8,6.8,0,0,0-5.59-2.54,7.66,7.66,0,0,0-5.94,2.57,9.47,9.47,0,0,0-2.32,6.59Z" transform="translate(-108 -338)"/><path class="cls-3" d="M502.19,405.39H482.87a9.93,9.93,0,0,0,2.42,6.83,8.47,8.47,0,0,0,6.42,2.41,13.62,13.62,0,0,0,8.51-3V416q-3.64,2.58-9.66,2.57t-9.35-3.79q-3.36-3.8-3.36-10.53a15.07,15.07,0,0,1,3.69-10.46,11.74,11.74,0,0,1,9.14-4.12,10.65,10.65,0,0,1,8.46,3.48q3,3.48,3.05,9.75Zm-4.89-3.92a8.82,8.82,0,0,0-1.77-5.79,6.15,6.15,0,0,0-4.92-2.05,6.87,6.87,0,0,0-5.06,2.18,10.06,10.06,0,0,0-2.68,5.66Z" transform="translate(-108 -338)"/></g></svg>